<mxfile host="app.diagrams.net" agent="Mozilla/5.0 (Macintosh; Intel Mac OS X 10_15_7) AppleWebKit/537.36 (KHTML, like Gecko) Chrome/139.0.0.0 Safari/537.36" version="28.2.1">
  <diagram id="-lPwc8ulFWO44gXg2eMa" name="Page-1">
    <mxGraphModel dx="2061" dy="705" grid="1" gridSize="10" guides="1" tooltips="1" connect="1" arrows="1" fold="1" page="1" pageScale="1" pageWidth="827" pageHeight="1169" math="0" shadow="0">
      <root>
        <mxCell id="0" />
        <mxCell id="1" parent="0" />
        <mxCell id="znwfkr2gbNSz17fZIazB-6" value="работа с клиентами" style="edgeStyle=orthogonalEdgeStyle;rounded=0;orthogonalLoop=1;jettySize=auto;html=1;exitX=1;exitY=0.3333333333333333;exitDx=0;exitDy=0;exitPerimeter=0;entryX=0;entryY=0.25;entryDx=0;entryDy=0;" parent="1" source="znwfkr2gbNSz17fZIazB-2" target="znwfkr2gbNSz17fZIazB-4" edge="1">
          <mxGeometry relative="1" as="geometry">
            <Array as="points">
              <mxPoint x="-230" y="255" />
            </Array>
          </mxGeometry>
        </mxCell>
        <mxCell id="znwfkr2gbNSz17fZIazB-2" value="сотрудники фронт-офиса" style="shape=umlActor;verticalLabelPosition=bottom;verticalAlign=top;html=1;outlineConnect=0;" parent="1" vertex="1">
          <mxGeometry x="-260" y="240" width="30" height="60" as="geometry" />
        </mxCell>
        <mxCell id="znwfkr2gbNSz17fZIazB-3" value="сотрудники бэк-офиса" style="shape=umlActor;verticalLabelPosition=bottom;verticalAlign=top;html=1;outlineConnect=0;" parent="1" vertex="1">
          <mxGeometry x="680" y="200" width="30" height="60" as="geometry" />
        </mxCell>
        <mxCell id="znwfkr2gbNSz17fZIazB-4" value="АБС" style="rounded=1;whiteSpace=wrap;html=1;" parent="1" vertex="1">
          <mxGeometry x="170" y="240" width="120" height="60" as="geometry" />
        </mxCell>
        <mxCell id="znwfkr2gbNSz17fZIazB-7" value="Excel" style="rounded=1;whiteSpace=wrap;html=1;" parent="1" vertex="1">
          <mxGeometry x="340" y="240" width="120" height="60" as="geometry" />
        </mxCell>
        <mxCell id="znwfkr2gbNSz17fZIazB-9" value="расчет кредита" style="edgeStyle=orthogonalEdgeStyle;rounded=0;orthogonalLoop=1;jettySize=auto;html=1;entryX=1;entryY=0.5;entryDx=0;entryDy=0;" parent="1" source="znwfkr2gbNSz17fZIazB-8" target="znwfkr2gbNSz17fZIazB-7" edge="1">
          <mxGeometry relative="1" as="geometry" />
        </mxCell>
        <mxCell id="znwfkr2gbNSz17fZIazB-24" value="анализ текущего уровня кредитного риска банка относительно клиента" style="edgeStyle=orthogonalEdgeStyle;rounded=0;orthogonalLoop=1;jettySize=auto;html=1;exitX=0;exitY=0.3333333333333333;exitDx=0;exitDy=0;exitPerimeter=0;" parent="1" source="znwfkr2gbNSz17fZIazB-8" edge="1">
          <mxGeometry relative="1" as="geometry">
            <mxPoint x="280" y="300" as="targetPoint" />
            <Array as="points">
              <mxPoint x="680" y="420" />
              <mxPoint x="280" y="420" />
              <mxPoint x="280" y="300" />
            </Array>
          </mxGeometry>
        </mxCell>
        <mxCell id="znwfkr2gbNSz17fZIazB-8" value="сотрудники отдела кредитования" style="shape=umlActor;verticalLabelPosition=bottom;verticalAlign=top;html=1;outlineConnect=0;" parent="1" vertex="1">
          <mxGeometry x="680" y="370" width="30" height="60" as="geometry" />
        </mxCell>
        <mxCell id="znwfkr2gbNSz17fZIazB-11" value="ставка по депозитам" style="edgeStyle=orthogonalEdgeStyle;rounded=0;orthogonalLoop=1;jettySize=auto;html=1;" parent="1" source="znwfkr2gbNSz17fZIazB-7" target="znwfkr2gbNSz17fZIazB-3" edge="1">
          <mxGeometry relative="1" as="geometry">
            <Array as="points">
              <mxPoint x="450" y="220" />
            </Array>
          </mxGeometry>
        </mxCell>
        <mxCell id="znwfkr2gbNSz17fZIazB-12" value="клиент" style="shape=umlActor;verticalLabelPosition=bottom;verticalAlign=top;html=1;outlineConnect=0;" parent="1" vertex="1">
          <mxGeometry x="-140" y="440" width="30" height="60" as="geometry" />
        </mxCell>
        <mxCell id="znwfkr2gbNSz17fZIazB-13" value="оповещение по смс об определении ставки" style="edgeStyle=orthogonalEdgeStyle;rounded=0;orthogonalLoop=1;jettySize=auto;html=1;entryX=1;entryY=0.3333333333333333;entryDx=0;entryDy=0;entryPerimeter=0;" parent="1" source="znwfkr2gbNSz17fZIazB-4" target="znwfkr2gbNSz17fZIazB-12" edge="1">
          <mxGeometry relative="1" as="geometry">
            <Array as="points">
              <mxPoint x="-110" y="340" />
            </Array>
          </mxGeometry>
        </mxCell>
        <mxCell id="znwfkr2gbNSz17fZIazB-16" value="заявки на определение депозита" style="edgeStyle=orthogonalEdgeStyle;rounded=0;orthogonalLoop=1;jettySize=auto;html=1;exitX=0.5;exitY=0;exitDx=0;exitDy=0;entryX=0;entryY=0.3333333333333333;entryDx=0;entryDy=0;entryPerimeter=0;" parent="1" source="znwfkr2gbNSz17fZIazB-4" target="znwfkr2gbNSz17fZIazB-3" edge="1">
          <mxGeometry relative="1" as="geometry">
            <Array as="points">
              <mxPoint x="230" y="140" />
              <mxPoint x="680" y="140" />
            </Array>
          </mxGeometry>
        </mxCell>
        <mxCell id="znwfkr2gbNSz17fZIazB-17" value="письмо об определении депозита" style="edgeStyle=orthogonalEdgeStyle;rounded=0;orthogonalLoop=1;jettySize=auto;html=1;entryX=0.5;entryY=0;entryDx=0;entryDy=0;entryPerimeter=0;" parent="1" source="znwfkr2gbNSz17fZIazB-2" target="znwfkr2gbNSz17fZIazB-3" edge="1">
          <mxGeometry relative="1" as="geometry">
            <Array as="points">
              <mxPoint x="-245" y="70" />
              <mxPoint x="695" y="70" />
            </Array>
          </mxGeometry>
        </mxCell>
        <mxCell id="znwfkr2gbNSz17fZIazB-18" value="обращение о спецпредложении по депозиту" style="edgeStyle=orthogonalEdgeStyle;rounded=0;orthogonalLoop=1;jettySize=auto;html=1;exitX=1;exitY=0.3333333333333333;exitDx=0;exitDy=0;exitPerimeter=0;entryX=0.75;entryY=0.1;entryDx=0;entryDy=0;entryPerimeter=0;" parent="1" source="znwfkr2gbNSz17fZIazB-3" target="znwfkr2gbNSz17fZIazB-8" edge="1">
          <mxGeometry relative="1" as="geometry">
            <Array as="points">
              <mxPoint x="800" y="220" />
              <mxPoint x="800" y="376" />
            </Array>
          </mxGeometry>
        </mxCell>
        <mxCell id="znwfkr2gbNSz17fZIazB-23" value="спец ставка по депозиту" style="edgeStyle=orthogonalEdgeStyle;rounded=0;orthogonalLoop=1;jettySize=auto;html=1;exitX=0;exitY=0.3333333333333333;exitDx=0;exitDy=0;exitPerimeter=0;entryX=0;entryY=0.3333333333333333;entryDx=0;entryDy=0;entryPerimeter=0;" parent="1" source="znwfkr2gbNSz17fZIazB-19" target="znwfkr2gbNSz17fZIazB-2" edge="1">
          <mxGeometry relative="1" as="geometry">
            <mxPoint x="-245" y="220" as="targetPoint" />
            <Array as="points">
              <mxPoint x="-260" y="600" />
            </Array>
          </mxGeometry>
        </mxCell>
        <mxCell id="znwfkr2gbNSz17fZIazB-19" value="сотрудники отдела депозита" style="shape=umlActor;verticalLabelPosition=bottom;verticalAlign=top;html=1;outlineConnect=0;" parent="1" vertex="1">
          <mxGeometry x="680" y="580" width="30" height="60" as="geometry" />
        </mxCell>
        <mxCell id="znwfkr2gbNSz17fZIazB-20" value="кредитный риск клиента" style="edgeStyle=orthogonalEdgeStyle;rounded=0;orthogonalLoop=1;jettySize=auto;html=1;entryX=0.5;entryY=0;entryDx=0;entryDy=0;entryPerimeter=0;" parent="1" source="znwfkr2gbNSz17fZIazB-8" target="znwfkr2gbNSz17fZIazB-19" edge="1">
          <mxGeometry relative="1" as="geometry" />
        </mxCell>
        <mxCell id="znwfkr2gbNSz17fZIazB-25" value="сотрудники кол-центра" style="shape=umlActor;verticalLabelPosition=bottom;verticalAlign=top;html=1;outlineConnect=0;" parent="1" vertex="1">
          <mxGeometry x="80" y="450" width="30" height="60" as="geometry" />
        </mxCell>
        <mxCell id="znwfkr2gbNSz17fZIazB-26" value="уточнение деталей депозита" style="edgeStyle=orthogonalEdgeStyle;rounded=0;orthogonalLoop=1;jettySize=auto;html=1;exitX=1;exitY=0.3333333333333333;exitDx=0;exitDy=0;exitPerimeter=0;entryX=0;entryY=0.3333333333333333;entryDx=0;entryDy=0;entryPerimeter=0;" parent="1" source="znwfkr2gbNSz17fZIazB-12" target="znwfkr2gbNSz17fZIazB-25" edge="1">
          <mxGeometry relative="1" as="geometry" />
        </mxCell>
        <mxCell id="znwfkr2gbNSz17fZIazB-28" value="обращение о деталях депозита" style="edgeStyle=orthogonalEdgeStyle;rounded=0;orthogonalLoop=1;jettySize=auto;html=1;exitX=1;exitY=0.3333333333333333;exitDx=0;exitDy=0;exitPerimeter=0;entryX=0.608;entryY=1;entryDx=0;entryDy=0;entryPerimeter=0;" parent="1" source="znwfkr2gbNSz17fZIazB-25" target="znwfkr2gbNSz17fZIazB-4" edge="1">
          <mxGeometry relative="1" as="geometry" />
        </mxCell>
        <mxCell id="dE331IOokaxmjbBABWAM-1" value="&lt;span style=&quot;color: rgb(0, 0, 0); font-family: Helvetica; font-size: 11px; font-style: normal; font-variant-ligatures: normal; font-variant-caps: normal; font-weight: 400; letter-spacing: normal; orphans: 2; text-align: center; text-indent: 0px; text-transform: none; widows: 2; word-spacing: 0px; -webkit-text-stroke-width: 0px; white-space: nowrap; background-color: rgb(255, 255, 255); text-decoration-thickness: initial; text-decoration-style: initial; text-decoration-color: initial; float: none; display: inline !important;&quot;&gt;заносит текущий уровнень кредитного риска банка относительно клиента&lt;/span&gt;" style="edgeStyle=orthogonalEdgeStyle;rounded=0;orthogonalLoop=1;jettySize=auto;html=1;entryX=0.7;entryY=1.017;entryDx=0;entryDy=0;entryPerimeter=0;" edge="1" parent="1" source="znwfkr2gbNSz17fZIazB-19" target="znwfkr2gbNSz17fZIazB-7">
          <mxGeometry relative="1" as="geometry">
            <Array as="points">
              <mxPoint x="695" y="570" />
              <mxPoint x="424" y="570" />
            </Array>
          </mxGeometry>
        </mxCell>
      </root>
    </mxGraphModel>
  </diagram>
</mxfile>
